<svg width="16" height="15" viewBox="0 0 16 15" fill="none" xmlns="http://www.w3.org/2000/svg">
<path d="M14.9611 5.2066L10.498 4.55797L8.50289 0.513245C8.4484 0.402503 8.35875 0.312854 8.24801 0.258362C7.97028 0.121253 7.63278 0.235511 7.49391 0.513245L5.49879 4.55797L1.03571 5.2066C0.912658 5.22418 0.800158 5.28219 0.714025 5.37008C0.609895 5.47711 0.552515 5.6211 0.554493 5.77041C0.55647 5.91972 0.617644 6.06214 0.724572 6.16637L3.95367 9.31461L3.19078 13.7601C3.17289 13.8635 3.18434 13.9699 3.22382 14.0671C3.2633 14.1644 3.32923 14.2486 3.41415 14.3103C3.49906 14.3719 3.59956 14.4086 3.70424 14.4161C3.80892 14.4235 3.9136 14.4015 4.00641 14.3525L7.9984 12.2537L11.9904 14.3525C12.0994 14.4105 12.2259 14.4298 12.3472 14.4088C12.6531 14.356 12.8588 14.066 12.806 13.7601L12.0431 9.31461L15.2722 6.16637C15.3601 6.08024 15.4181 5.96774 15.4357 5.84469C15.4832 5.53707 15.2687 5.25231 14.9611 5.2066Z" fill="#FFC000"/>
</svg>
